<?xml version="1.0" encoding="UTF-8" standalone="no"?>
<!DOCTYPE svg PUBLIC "-//W3C//DTD SVG 1.1//EN" "http://www.w3.org/Graphics/SVG/1.1/DTD/svg11.dtd">
<svg width="100%" height="100%" viewBox="0 0 12 13" version="1.1" xmlns="http://www.w3.org/2000/svg" xmlns:xlink="http://www.w3.org/1999/xlink" xml:space="preserve" xmlns:serif="http://www.serif.com/" style="fill-rule:evenodd;clip-rule:evenodd;stroke-linejoin:round;stroke-miterlimit:1.41421;">
    <g transform="matrix(0.75,0,0,0.75,0,0)">
        <g transform="matrix(0.0332036,0,0,0.0332036,-0.61819,-0.000224379)">
            <g>
                <path d="M490.217,2.318C488.206,0.559 485.553,-0.242 482.872,0.074L194.29,37.413C189.654,38.018 186.182,41.956 186.182,46.639L186.182,378.163C169.183,357.73 142.178,344.436 111.709,344.436C60.379,344.436 18.618,382.017 18.618,428.218C18.618,474.419 60.379,512 111.709,512C163.039,512 204.8,474.419 204.8,428.218C204.8,426.058 204.623,423.936 204.437,421.823C204.558,421.218 204.8,420.669 204.8,420.035L204.8,150.044L474.764,115.107L474.764,285.063C457.765,264.639 430.76,251.345 400.291,251.345C348.961,251.345 307.2,288.926 307.2,335.127C307.2,381.328 348.961,418.909 400.291,418.909C451.156,418.909 492.572,381.989 493.317,336.365C493.317,336.244 493.382,336.142 493.382,336.021L493.382,104.513L493.382,65.313L493.382,9.309C493.382,6.628 492.227,4.077 490.217,2.318Z" style="fill:white;fill-rule:nonzero;"/>
            </g>
        </g>
    </g>
</svg>
