<?xml version="1.0" encoding="UTF-8" standalone="no"?>
<!DOCTYPE svg PUBLIC "-//W3C//DTD SVG 1.1//EN" "http://www.w3.org/Graphics/SVG/1.1/DTD/svg11.dtd">
<svg width="100%" height="100%" viewBox="0 0 18 13" version="1.1" xmlns="http://www.w3.org/2000/svg" xmlns:xlink="http://www.w3.org/1999/xlink" xml:space="preserve" xmlns:serif="http://www.serif.com/" style="fill-rule:evenodd;clip-rule:evenodd;stroke-linejoin:round;stroke-miterlimit:1.41421;">
    <g transform="matrix(0.75,0,0,0.75,0,0)">
        <g transform="matrix(0.0443322,0,0,0.0443322,0,-2.83726)">
            <g>
                <path d="M456.832,64L55.164,64C24.746,64 0,88.746 0,119.168L0,392.301C0,422.719 24.746,447.469 55.164,447.469L456.832,447.469C487.25,447.469 512,422.719 512,392.301L512,119.168C512,88.746 487.25,64 456.832,64ZM482,208.602L411.727,208.602C426.051,182.785 451.738,164.113 482,159.418L482,208.602ZM399.531,255.734C399.531,249.887 400.063,244.164 401.055,238.602L482,238.602L482,272.867L401.055,272.867C400.063,267.301 399.531,261.578 399.531,255.734ZM482,302.867L482,352.047C451.742,347.352 426.051,328.68 411.727,302.867L482,302.867ZM241,302.656C221.148,296.297 206.73,277.672 206.73,255.734C206.73,233.797 221.148,215.172 241,208.809L241,302.656ZM271,208.809C290.852,215.172 305.266,233.797 305.266,255.734C305.266,277.672 290.852,296.297 271,302.656L271,208.809ZM107.809,272.867L30,272.867L30,238.602L107.809,238.602L107.809,272.867ZM30,302.867L100.273,302.867C85.949,328.68 60.258,347.352 30,352.047L30,302.867ZM30,208.602L30,159.418C60.262,164.113 85.949,182.785 100.273,208.602L30,208.602ZM30,392.301L30,382.313C80.758,376.336 122.477,340.422 136.977,292.762C137.105,292.383 137.219,291.996 137.32,291.605C140.664,280.223 142.469,268.184 142.469,255.734C142.469,243.277 140.664,231.238 137.316,219.852C137.219,219.465 137.105,219.082 136.977,218.707C122.48,171.047 80.758,135.133 30,129.152L30,119.168C30,105.289 41.289,94 55.164,94L241,94L241,177.91C204.441,184.941 176.73,217.152 176.73,255.734C176.73,294.313 204.441,326.523 241,333.559L241,417.465L55.164,417.465C41.289,417.465 30,406.176 30,392.301ZM456.832,417.465L271,417.465L271,333.559C307.559,326.523 335.266,294.313 335.266,255.734C335.266,217.152 307.559,184.941 271,177.91L271,94L456.832,94C470.711,94 482,105.289 482,119.168L482,129.152C431.23,135.133 389.504,171.059 375.016,218.738C374.895,219.09 374.789,219.445 374.695,219.805C371.344,231.203 369.531,243.262 369.531,255.734C369.531,268.184 371.336,280.223 374.68,291.605C374.781,292 374.895,292.383 375.023,292.762C389.52,340.422 431.242,376.336 482,382.313L482,392.301C482,406.176 470.711,417.465 456.832,417.465Z" style="fill:white;fill-rule:nonzero;"/>
            </g>
        </g>
    </g>
</svg>
