<?xml version="1.0" encoding="UTF-8" standalone="no"?>
<!DOCTYPE svg PUBLIC "-//W3C//DTD SVG 1.1//EN" "http://www.w3.org/Graphics/SVG/1.1/DTD/svg11.dtd">
<svg width="100%" height="100%" viewBox="0 0 15 13" version="1.1" xmlns="http://www.w3.org/2000/svg" xmlns:xlink="http://www.w3.org/1999/xlink" xml:space="preserve" xmlns:serif="http://www.serif.com/" style="fill-rule:evenodd;clip-rule:evenodd;stroke-linejoin:round;stroke-miterlimit:1.41421;">
    <g transform="matrix(0.75,0,0,0.75,0,0)">
        <g transform="matrix(1,0,0,0.811293,-107.943,-507.456)">
            <g transform="matrix(0.0385804,0,0,0.0475542,107.943,623.793)">
                <path d="M287.18,94.302C289.422,94.302 291.665,93.449 293.376,91.738L333.026,52.088C336.448,48.672 336.448,43.119 333.026,39.703C329.604,36.281 324.062,36.281 320.64,39.703L280.99,79.353C277.568,82.769 277.568,88.322 280.99,91.738C282.695,93.449 284.938,94.302 287.18,94.302Z" style="fill:white;fill-rule:nonzero;"/>
            </g>
            <g transform="matrix(0.0385804,0,0,0.0475542,107.943,623.793)">
                <path d="M325.481,136.235C327.192,137.946 329.434,138.799 331.677,138.799C333.919,138.799 336.161,137.946 337.872,136.235L382.603,91.505C386.025,88.089 386.025,82.541 382.603,79.119C379.181,75.697 373.639,75.697 370.217,79.119L325.487,123.85C322.059,127.266 322.059,132.813 325.481,136.235Z" style="fill:white;fill-rule:nonzero;"/>
            </g>
            <g transform="matrix(0.0385804,0,0,0.0475542,107.943,623.793)">
                <path d="M397.955,72.521C400.197,72.521 402.44,71.668 404.151,69.957L423.479,50.628C426.901,47.212 426.901,41.659 423.479,38.243C420.057,34.821 414.516,34.821 411.094,38.243L391.765,57.571C388.343,60.988 388.343,66.541 391.765,69.957C393.476,71.662 395.718,72.521 397.955,72.521Z" style="fill:white;fill-rule:nonzero;"/>
            </g>
            <g transform="matrix(0.0385804,0,0,0.0475542,107.943,623.793)">
                <path d="M509.431,41.279C506.009,37.857 500.467,37.857 497.045,41.279L369.978,168.346C366.556,171.763 366.556,177.316 369.978,180.732C371.689,182.443 373.931,183.296 376.174,183.296C378.416,183.296 380.658,182.443 382.369,180.732L509.436,53.665C512.853,50.243 512.853,44.695 509.431,41.279Z" style="fill:white;fill-rule:nonzero;"/>
            </g>
            <g transform="matrix(0.0385804,0,0,0.0475542,107.943,623.793)">
                <path d="M364.582,276.984C362.638,255.81 357.108,235.425 348.144,216.4C348.138,216.388 348.138,216.382 348.132,216.37C339.268,197.45 327.198,180.271 312.296,165.374C309.271,162.279 306.345,159.564 303.566,157.24C295.057,149.695 285.732,142.886 275.834,137C275.822,136.994 275.816,136.988 275.81,136.983C270.222,133.683 264.821,130.851 259.308,128.334C243.302,120.971 226.303,116.013 208.767,113.595C204.738,113.047 200.709,112.62 196.604,112.311C193.182,112.066 189.555,112.819 186.519,112.784C174.945,112.539 163.295,110.419 151.926,116.258C151.897,116.258 151.873,116.258 151.844,116.258C128.72,116.258 106.933,126.337 87.143,138.711C77.578,144.597 68.41,151.295 59.901,157.135L59.896,157.135C59.89,157.135 59.884,158.501 59.878,158.507C59.861,158.524 59.837,159.219 59.814,159.243C59.808,159.249 59.808,159.593 59.802,159.593C57.963,161.246 56.129,163.126 54.36,164.901C53.536,165.725 52.666,166.7 51.89,167.646C38.155,181.859 26.062,198.011 17.758,215.547C9.594,232.546 6.54,250.677 0.701,269.352C0.701,269.352 0.701,269.358 0.701,269.364C0.701,279.612 -0.286,290.164 0.093,300.938L0.905,307.163C2.155,325.318 6.272,342.859 12.666,359.327C12.672,359.338 12.783,359.35 12.788,359.368C12.8,359.403 12.876,359.438 12.888,359.473C12.899,359.502 12.934,359.537 12.946,359.566C12.952,359.572 12.969,359.584 12.975,359.59C14.418,363.537 16.14,367.595 18.237,371.987C25.495,387.31 34.873,401.535 46.284,414.481C46.675,414.942 47.072,415.386 47.498,415.812C49.49,418.183 51.72,420.606 54.12,423.006C65.525,434.411 78.378,444.256 92.509,452.367C93.157,452.741 93.805,453.097 94.454,453.436C94.477,453.448 94.5,453.471 94.524,453.483C117.344,466.242 143.348,473.967 169.666,475.824C173.947,476.151 178.291,476.315 182.641,476.315C184.82,476.315 187.004,476.268 189.176,476.192C189.199,476.192 189.223,476.186 189.246,476.181C209.62,475.55 229.515,471.573 248.382,464.35C251.279,463.246 254.163,462.067 257.06,460.782C257.34,460.653 257.615,460.513 257.877,460.361C275.548,452.478 291.799,441.78 306.187,428.554C306.421,428.361 306.655,428.128 306.882,427.911C308.482,426.574 310.065,425.056 311.414,423.649L310.917,423.135C333.464,400.647 351.058,372.647 356.898,342.159C356.898,342.153 356.898,342.153 356.898,342.147C356.898,342.141 356.898,343.992 356.898,343.992L358.422,343.992C360.115,338.153 361.709,330.643 362.661,324.64C362.679,324.535 362.819,323.969 362.83,323.864C365.149,309.995 365.855,295.46 364.822,281.34C364.769,279.992 364.705,278.345 364.582,276.984ZM299.852,177.695C312.26,190.104 322.351,204.265 330.129,219.699L295.887,274.753L247.226,279.495L201.299,230.076L207.459,186.18L275.116,158.647C275.454,158.513 275.711,158.267 276.027,158.098C281.592,161.929 287.022,165.981 292.132,170.513C294.666,172.633 297.171,174.957 299.852,177.695ZM91.37,364.629L27.848,349.008C22.961,335.344 19.866,320.92 18.844,306.065L18.499,300.132C18.225,292.219 18.628,284.365 19.434,276.64L77.04,253.177L114.501,271.104L122.431,336.991L91.37,364.629ZM96.375,154.051C112.901,143.721 130.939,136.574 150.028,132.673L190.554,180.644L184.049,226.987L122.501,255.507L84.743,237.439L79.569,166.945C79.551,166.676 79.429,166.443 79.388,166.18C84.83,161.748 90.5,157.666 96.375,154.051ZM107.178,440.344L102.594,378.101L133.73,350.404L200.686,363.63L214.975,401.172L179.249,458.756C176.475,458.697 173.701,458.575 170.951,458.364C148.358,456.764 126.939,450.668 107.178,440.344ZM301.557,408.612L229.83,390.977L216.645,356.325L249.825,296.85L298.684,292.091L340.716,341.873C333.259,366.807 319.823,389.733 301.557,408.612Z" style="fill:white;fill-rule:nonzero;"/>
            </g>
        </g>
    </g>
</svg>
