<?xml version="1.0" encoding="UTF-8" standalone="no"?>
<!DOCTYPE svg PUBLIC "-//W3C//DTD SVG 1.1//EN" "http://www.w3.org/Graphics/SVG/1.1/DTD/svg11.dtd">
<svg width="100%" height="100%" viewBox="0 0 62 62" version="1.1" xmlns="http://www.w3.org/2000/svg" xmlns:xlink="http://www.w3.org/1999/xlink" xml:space="preserve" xmlns:serif="http://www.serif.com/" style="fill-rule:evenodd;clip-rule:evenodd;stroke-linejoin:round;stroke-miterlimit:1.41421;">
    <g transform="matrix(0.75,0,0,0.75,0,0)">
        <g transform="matrix(1,0,0,0.811293,-249,-1955.15)">
            <g transform="matrix(0.899353,0,0,1.10854,48.5979,682.767)">
                <circle cx="268.418" cy="1603.63" r="44.476" style="fill:rgb(74,125,102);fill-opacity:0.443137;"/>
                <path d="M268.705,1559.15L268.992,1559.15L269.279,1559.16L269.565,1559.17L269.851,1559.17L270.136,1559.18L270.421,1559.19L270.705,1559.21L270.989,1559.22L271.272,1559.24L271.555,1559.26L271.838,1559.28L272.12,1559.3L272.401,1559.33L272.682,1559.35L272.962,1559.38L273.242,1559.41L273.522,1559.44L273.801,1559.47L274.079,1559.51L274.357,1559.55L274.634,1559.58L274.911,1559.62L275.187,1559.66L275.463,1559.71L275.738,1559.75L276.012,1559.8L276.286,1559.85L276.56,1559.9L276.833,1559.95L277.105,1560L277.377,1560.06L277.648,1560.11L277.918,1560.17L278.188,1560.23L278.457,1560.29L278.726,1560.35L278.994,1560.42L279.261,1560.49L279.528,1560.55L279.794,1560.62L280.059,1560.69L280.324,1560.77L280.588,1560.84L280.851,1560.91L281.114,1560.99L281.376,1561.07L281.638,1561.15L281.898,1561.23L282.158,1561.32L282.418,1561.4L282.676,1561.49L282.934,1561.58L283.191,1561.67L283.448,1561.76L283.704,1561.85L283.959,1561.95L284.213,1562.04L284.466,1562.14L284.719,1562.24L284.971,1562.34L285.223,1562.44L285.473,1562.54L285.723,1562.65L285.972,1562.76L286.22,1562.86L286.468,1562.97L286.714,1563.08L286.96,1563.19L287.205,1563.31L287.449,1563.42L287.693,1563.54L287.936,1563.66L288.177,1563.78L288.418,1563.9L288.658,1564.02L288.898,1564.14L289.136,1564.27L289.374,1564.39L289.611,1564.52L289.846,1564.65L290.081,1564.78L290.316,1564.91L290.549,1565.05L290.781,1565.18L291.013,1565.32L291.243,1565.45L291.473,1565.59L291.702,1565.73L291.93,1565.88L292.157,1566.02L292.383,1566.16L292.608,1566.31L292.832,1566.45L293.055,1566.6L293.278,1566.75L293.499,1566.9L293.719,1567.05L293.939,1567.21L294.157,1567.36L294.375,1567.52L294.591,1567.67L294.807,1567.83L295.022,1567.99L295.235,1568.15L295.448,1568.32L295.659,1568.48L295.87,1568.64L296.079,1568.81L296.288,1568.98L296.496,1569.14L296.702,1569.31L296.907,1569.48L297.112,1569.65L297.315,1569.83L297.518,1570L297.719,1570.18L297.919,1570.35L298.118,1570.53L298.316,1570.71L298.513,1570.89L298.709,1571.07L298.904,1571.26L299.097,1571.44L299.29,1571.62L299.481,1571.81L299.672,1572L299.861,1572.18L300.049,1572.37L300.236,1572.56L300.422,1572.76L300.607,1572.95L300.79,1573.14L300.973,1573.34L301.154,1573.53L301.334,1573.73L301.513,1573.93L301.691,1574.13L301.867,1574.33L302.043,1574.53L302.217,1574.73L302.39,1574.93L302.562,1575.14L302.733,1575.34L302.902,1575.55L303.07,1575.76L303.237,1575.97L303.403,1576.17L303.567,1576.39L303.731,1576.6L303.893,1576.81L304.053,1577.02L304.213,1577.24L304.371,1577.45L304.528,1577.67L304.684,1577.89L304.838,1578.11L304.991,1578.33L305.143,1578.55L305.294,1578.77L305.443,1578.99L305.591,1579.21L305.738,1579.44L305.883,1579.66L306.027,1579.89L306.17,1580.12L306.311,1580.34L306.451,1580.57L306.59,1580.8L306.727,1581.03L306.863,1581.26L306.998,1581.5L307.131,1581.73L307.263,1581.96L307.394,1582.2L307.523,1582.43L307.65,1582.67L307.777,1582.91L307.902,1583.15L308.025,1583.39L308.148,1583.63L308.268,1583.87L308.388,1584.11L308.505,1584.35L308.622,1584.6L308.737,1584.84L308.851,1585.09L308.963,1585.33L309.073,1585.58L309.183,1585.83L309.29,1586.07L309.397,1586.32L309.501,1586.57L309.605,1586.82L309.707,1587.07L309.807,1587.33L309.906,1587.58L310.003,1587.83L310.099,1588.09L310.193,1588.34L310.286,1588.6L310.378,1588.85L310.467,1589.11L310.556,1589.37L310.642,1589.63L310.727,1589.89L310.811,1590.15L310.893,1590.41L310.974,1590.67L311.053,1590.93L311.13,1591.19L311.206,1591.46L311.28,1591.72L311.352,1591.99L311.423,1592.25L311.493,1592.52L311.561,1592.78L311.627,1593.05L311.691,1593.32L311.754,1593.59L311.816,1593.86L311.875,1594.13L311.933,1594.4L311.99,1594.67L312.045,1594.94L312.098,1595.21L312.149,1595.49L312.199,1595.76L312.247,1596.03L312.293,1596.31L312.338,1596.58L312.381,1596.86L312.423,1597.13L312.462,1597.41L312.5,1597.69L312.537,1597.97L312.571,1598.24L312.604,1598.52L312.635,1598.8L312.664,1599.08L312.692,1599.36L312.718,1599.64L312.742,1599.93L312.764,1600.21L312.785,1600.49L312.804,1600.77L312.821,1601.06L312.836,1601.34L312.85,1601.63L312.861,1601.91L312.871,1602.19L312.88,1602.48L312.886,1602.77L312.89,1603.05L312.893,1603.34L312.894,1603.63L312.893,1603.91L312.89,1604.2L312.886,1604.49L312.88,1604.78L312.871,1605.06L312.861,1605.35L312.85,1605.63L312.836,1605.91L312.821,1606.2L312.804,1606.48L312.785,1606.77L312.764,1607.05L312.742,1607.33L312.718,1607.61L312.692,1607.89L312.664,1608.17L312.635,1608.45L312.604,1608.73L312.571,1609.01L312.537,1609.29L312.5,1609.57L312.462,1609.84L312.423,1610.12L312.381,1610.4L312.338,1610.67L312.293,1610.95L312.247,1611.22L312.199,1611.5L312.149,1611.77L312.098,1612.04L312.045,1612.32L311.99,1612.59L311.933,1612.86L311.875,1613.13L311.816,1613.4L311.754,1613.67L311.691,1613.93L311.627,1614.2L311.561,1614.47L311.493,1614.74L311.423,1615L311.352,1615.27L311.28,1615.53L311.206,1615.8L311.13,1616.06L311.053,1616.32L310.974,1616.59L310.893,1616.85L310.811,1617.11L310.727,1617.37L310.642,1617.63L310.556,1617.89L310.467,1618.14L310.378,1618.4L310.286,1618.66L310.193,1618.91L310.099,1619.17L310.003,1619.42L309.906,1619.68L309.807,1619.93L309.707,1620.18L309.605,1620.43L309.501,1620.68L309.397,1620.93L309.29,1621.18L309.183,1621.43L309.073,1621.68L308.963,1621.92L308.851,1622.17L308.737,1622.41L308.622,1622.66L308.505,1622.9L308.388,1623.14L308.268,1623.39L308.148,1623.63L308.025,1623.87L307.902,1624.11L307.777,1624.35L307.65,1624.58L307.523,1624.82L307.394,1625.06L307.263,1625.29L307.131,1625.53L306.998,1625.76L306.863,1625.99L306.727,1626.22L306.59,1626.45L306.451,1626.68L306.311,1626.91L306.17,1627.14L306.027,1627.37L305.883,1627.59L305.738,1627.82L305.591,1628.04L305.443,1628.27L305.294,1628.49L305.143,1628.71L304.991,1628.93L304.838,1629.15L304.684,1629.37L304.528,1629.59L304.371,1629.8L304.213,1630.02L304.053,1630.23L303.893,1630.44L303.731,1630.66L303.567,1630.87L303.403,1631.08L303.237,1631.29L303.07,1631.5L302.902,1631.7L302.733,1631.91L302.562,1632.12L302.39,1632.32L302.217,1632.53L302.043,1632.73L301.867,1632.93L301.691,1633.13L301.513,1633.33L301.334,1633.53L301.154,1633.72L300.973,1633.92L300.79,1634.11L300.607,1634.31L300.422,1634.5L300.236,1634.69L300.049,1634.88L299.861,1635.07L299.672,1635.26L299.481,1635.45L299.29,1635.63L299.097,1635.82L298.904,1636L298.709,1636.18L298.513,1636.36L298.316,1636.54L298.118,1636.72L297.919,1636.9L297.719,1637.08L297.518,1637.25L297.315,1637.43L297.112,1637.6L296.907,1637.77L296.702,1637.94L296.496,1638.11L296.288,1638.28L296.079,1638.45L295.87,1638.61L295.659,1638.78L295.448,1638.94L295.235,1639.1L295.022,1639.26L294.807,1639.42L294.591,1639.58L294.375,1639.74L294.157,1639.89L293.939,1640.05L293.719,1640.2L293.499,1640.35L293.278,1640.5L293.055,1640.65L292.832,1640.8L292.608,1640.95L292.383,1641.09L292.157,1641.24L291.93,1641.38L291.702,1641.52L291.473,1641.66L291.243,1641.8L291.013,1641.94L290.781,1642.07L290.549,1642.21L290.316,1642.34L290.081,1642.47L289.846,1642.6L289.611,1642.73L289.374,1642.86L289.136,1642.99L288.898,1643.11L288.658,1643.24L288.418,1643.36L288.177,1643.48L287.936,1643.6L287.693,1643.72L287.449,1643.83L287.205,1643.95L286.96,1644.06L286.714,1644.17L286.468,1644.28L286.22,1644.39L285.972,1644.5L285.723,1644.61L285.473,1644.71L285.223,1644.82L284.971,1644.92L284.719,1645.02L284.466,1645.12L284.213,1645.21L283.959,1645.31L283.704,1645.4L283.448,1645.5L283.191,1645.59L282.934,1645.68L282.676,1645.77L282.418,1645.85L282.158,1645.94L281.898,1646.02L281.638,1646.1L281.376,1646.18L281.114,1646.26L280.851,1646.34L280.588,1646.41L280.324,1646.49L280.059,1646.56L279.794,1646.63L279.528,1646.7L279.261,1646.77L278.994,1646.84L278.726,1646.9L278.457,1646.96L278.188,1647.03L277.918,1647.09L277.648,1647.14L277.377,1647.2L277.105,1647.25L276.833,1647.31L276.56,1647.36L276.286,1647.41L276.012,1647.46L275.738,1647.5L275.463,1647.55L275.187,1647.59L274.911,1647.63L274.634,1647.67L274.357,1647.71L274.079,1647.75L273.801,1647.78L273.522,1647.81L273.242,1647.85L272.962,1647.87L272.682,1647.9L272.401,1647.93L272.12,1647.95L271.838,1647.97L271.555,1648L271.272,1648.01L270.989,1648.03L270.705,1648.05L270.421,1648.06L270.136,1648.07L269.851,1648.08L269.565,1648.09L269.279,1648.1L268.992,1648.1L268.705,1648.1L268.418,1648.1L268.13,1648.1L267.843,1648.1L267.557,1648.1L267.27,1648.09L266.985,1648.08L266.7,1648.07L266.415,1648.06L266.13,1648.05L265.847,1648.03L265.563,1648.01L265.28,1648L264.998,1647.97L264.716,1647.95L264.434,1647.93L264.153,1647.9L263.873,1647.87L263.593,1647.85L263.314,1647.81L263.035,1647.78L262.756,1647.75L262.478,1647.71L262.201,1647.67L261.924,1647.63L261.648,1647.59L261.372,1647.55L261.097,1647.5L260.823,1647.46L260.549,1647.41L260.275,1647.36L260.003,1647.31L259.73,1647.25L259.459,1647.2L259.188,1647.14L258.917,1647.09L258.648,1647.03L258.378,1646.96L258.11,1646.9L257.842,1646.84L257.574,1646.77L257.308,1646.7L257.042,1646.63L256.776,1646.56L256.512,1646.49L256.248,1646.41L255.984,1646.34L255.721,1646.26L255.459,1646.18L255.198,1646.1L254.937,1646.02L254.677,1645.94L254.418,1645.85L254.159,1645.77L253.901,1645.68L253.644,1645.59L253.388,1645.5L253.132,1645.4L252.877,1645.31L252.622,1645.21L252.369,1645.12L252.116,1645.02L251.864,1644.92L251.613,1644.82L251.362,1644.71L251.112,1644.61L250.863,1644.5L250.615,1644.39L250.368,1644.28L250.121,1644.17L249.875,1644.06L249.63,1643.95L249.386,1643.83L249.142,1643.72L248.9,1643.6L248.658,1643.48L248.417,1643.36L248.177,1643.24L247.938,1643.11L247.699,1642.99L247.462,1642.86L247.225,1642.73L246.989,1642.6L246.754,1642.47L246.52,1642.34L246.287,1642.21L246.054,1642.07L245.823,1641.94L245.592,1641.8L245.362,1641.66L245.134,1641.52L244.906,1641.38L244.679,1641.24L244.453,1641.09L244.227,1640.95L244.003,1640.8L243.78,1640.65L243.558,1640.5L243.336,1640.35L243.116,1640.2L242.896,1640.05L242.678,1639.89L242.46,1639.74L242.244,1639.58L242.028,1639.42L241.814,1639.26L241.6,1639.1L241.388,1638.94L241.176,1638.78L240.965,1638.61L240.756,1638.45L240.547,1638.28L240.34,1638.11L240.133,1637.94L239.928,1637.77L239.724,1637.6L239.52,1637.43L239.318,1637.25L239.117,1637.08L238.916,1636.9L238.717,1636.72L238.519,1636.54L238.322,1636.36L238.126,1636.18L237.932,1636L237.738,1635.82L237.545,1635.63L237.354,1635.45L237.163,1635.26L236.974,1635.07L236.786,1634.88L236.599,1634.69L236.413,1634.5L236.229,1634.31L236.045,1634.11L235.863,1633.92L235.681,1633.72L235.501,1633.53L235.322,1633.33L235.144,1633.13L234.968,1632.93L234.792,1632.73L234.618,1632.53L234.445,1632.32L234.273,1632.12L234.103,1631.91L233.933,1631.7L233.765,1631.5L233.598,1631.29L233.433,1631.08L233.268,1630.87L233.105,1630.66L232.943,1630.44L232.782,1630.23L232.622,1630.02L232.464,1629.8L232.307,1629.59L232.151,1629.37L231.997,1629.15L231.844,1628.93L231.692,1628.71L231.541,1628.49L231.392,1628.27L231.244,1628.04L231.098,1627.82L230.952,1627.59L230.808,1627.37L230.665,1627.14L230.524,1626.91L230.384,1626.68L230.245,1626.45L230.108,1626.22L229.972,1625.99L229.837,1625.76L229.704,1625.53L229.572,1625.29L229.442,1625.06L229.313,1624.82L229.185,1624.58L229.059,1624.35L228.934,1624.11L228.81,1623.87L228.688,1623.63L228.567,1623.39L228.448,1623.14L228.33,1622.9L228.213,1622.66L228.098,1622.41L227.985,1622.17L227.873,1621.92L227.762,1621.68L227.653,1621.43L227.545,1621.18L227.439,1620.93L227.334,1620.68L227.231,1620.43L227.129,1620.18L227.028,1619.93L226.929,1619.68L226.832,1619.42L226.736,1619.17L226.642,1618.91L226.549,1618.66L226.458,1618.4L226.368,1618.14L226.28,1617.89L226.193,1617.63L226.108,1617.37L226.024,1617.11L225.942,1616.85L225.862,1616.59L225.783,1616.32L225.705,1616.06L225.63,1615.8L225.555,1615.53L225.483,1615.27L225.412,1615L225.342,1614.74L225.275,1614.47L225.209,1614.2L225.144,1613.93L225.081,1613.67L225.02,1613.4L224.96,1613.13L224.902,1612.86L224.846,1612.59L224.791,1612.32L224.738,1612.04L224.686,1611.77L224.636,1611.5L224.588,1611.22L224.542,1610.95L224.497,1610.67L224.454,1610.4L224.413,1610.12L224.373,1609.84L224.335,1609.57L224.299,1609.29L224.264,1609.01L224.231,1608.73L224.2,1608.45L224.171,1608.17L224.143,1607.89L224.118,1607.61L224.093,1607.33L224.071,1607.05L224.05,1606.77L224.032,1606.48L224.014,1606.2L223.999,1605.91L223.986,1605.63L223.974,1605.35L223.964,1605.06L223.956,1604.78L223.949,1604.49L223.945,1604.2L223.942,1603.91L223.941,1603.63L223.942,1603.34L223.945,1603.05L223.949,1602.77L223.956,1602.48L223.964,1602.19L223.974,1601.91L223.986,1601.63L223.999,1601.34L224.014,1601.06L224.032,1600.77L224.05,1600.49L224.071,1600.21L224.093,1599.93L224.118,1599.64L224.143,1599.36L224.171,1599.08L224.2,1598.8L224.231,1598.52L224.264,1598.24L224.299,1597.97L224.335,1597.69L224.373,1597.41L224.413,1597.13L224.454,1596.86L224.497,1596.58L224.542,1596.31L224.588,1596.03L224.636,1595.76L224.686,1595.49L224.738,1595.21L224.791,1594.94L224.846,1594.67L224.902,1594.4L224.96,1594.13L225.02,1593.86L225.081,1593.59L225.144,1593.32L225.209,1593.05L225.275,1592.78L225.342,1592.52L225.412,1592.25L225.483,1591.99L225.555,1591.72L225.63,1591.46L225.705,1591.19L225.783,1590.93L225.862,1590.67L225.942,1590.41L226.024,1590.15L226.108,1589.89L226.193,1589.63L226.28,1589.37L226.368,1589.11L226.458,1588.85L226.549,1588.6L226.642,1588.34L226.736,1588.09L226.832,1587.83L226.929,1587.58L227.028,1587.33L227.129,1587.07L227.231,1586.82L227.334,1586.57L227.439,1586.32L227.545,1586.07L227.653,1585.83L227.762,1585.58L227.873,1585.33L227.985,1585.09L228.098,1584.84L228.213,1584.6L228.33,1584.35L228.448,1584.11L228.567,1583.87L228.688,1583.63L228.81,1583.39L228.934,1583.15L229.059,1582.91L229.185,1582.67L229.313,1582.43L229.442,1582.2L229.572,1581.96L229.704,1581.73L229.837,1581.5L229.972,1581.26L230.108,1581.03L230.245,1580.8L230.384,1580.57L230.524,1580.34L230.665,1580.12L230.808,1579.89L230.952,1579.66L231.098,1579.44L231.244,1579.21L231.392,1578.99L231.541,1578.77L231.692,1578.55L231.844,1578.33L231.997,1578.11L232.151,1577.89L232.307,1577.67L232.464,1577.45L232.622,1577.24L232.782,1577.02L232.943,1576.81L233.105,1576.6L233.268,1576.39L233.433,1576.17L233.598,1575.97L233.765,1575.76L233.933,1575.55L234.103,1575.34L234.273,1575.14L234.445,1574.93L234.618,1574.73L234.792,1574.53L234.968,1574.33L235.144,1574.13L235.322,1573.93L235.501,1573.73L235.681,1573.53L235.863,1573.34L236.045,1573.14L236.229,1572.95L236.413,1572.76L236.599,1572.56L236.786,1572.37L236.974,1572.18L237.163,1572L237.354,1571.81L237.545,1571.62L237.738,1571.44L237.932,1571.26L238.126,1571.07L238.322,1570.89L238.519,1570.71L238.717,1570.53L238.916,1570.35L239.117,1570.18L239.318,1570L239.52,1569.83L239.724,1569.65L239.928,1569.48L240.133,1569.31L240.34,1569.14L240.547,1568.98L240.756,1568.81L240.965,1568.64L241.176,1568.48L241.388,1568.32L241.6,1568.15L241.814,1567.99L242.028,1567.83L242.244,1567.67L242.46,1567.52L242.678,1567.36L242.896,1567.21L243.116,1567.05L243.336,1566.9L243.558,1566.75L243.78,1566.6L244.003,1566.45L244.227,1566.31L244.453,1566.16L244.679,1566.02L244.906,1565.88L245.134,1565.73L245.362,1565.59L245.592,1565.45L245.823,1565.32L246.054,1565.18L246.287,1565.05L246.52,1564.91L246.754,1564.78L246.989,1564.65L247.225,1564.52L247.462,1564.39L247.699,1564.27L247.938,1564.14L248.177,1564.02L248.417,1563.9L248.658,1563.78L248.9,1563.66L249.142,1563.54L249.386,1563.42L249.63,1563.31L249.875,1563.19L250.121,1563.08L250.368,1562.97L250.615,1562.86L250.863,1562.76L251.112,1562.65L251.362,1562.54L251.613,1562.44L251.864,1562.34L252.116,1562.24L252.369,1562.14L252.622,1562.04L252.877,1561.95L253.132,1561.85L253.388,1561.76L253.644,1561.67L253.901,1561.58L254.159,1561.49L254.418,1561.4L254.677,1561.32L254.937,1561.23L255.198,1561.15L255.459,1561.07L255.721,1560.99L255.984,1560.91L256.248,1560.84L256.512,1560.77L256.776,1560.69L257.042,1560.62L257.308,1560.55L257.574,1560.49L257.842,1560.42L258.11,1560.35L258.378,1560.29L258.648,1560.23L258.917,1560.17L259.188,1560.11L259.459,1560.06L259.73,1560L260.003,1559.95L260.275,1559.9L260.549,1559.85L260.823,1559.8L261.097,1559.75L261.372,1559.71L261.648,1559.66L261.924,1559.62L262.201,1559.58L262.478,1559.55L262.756,1559.51L263.035,1559.47L263.314,1559.44L263.593,1559.41L263.873,1559.38L264.153,1559.35L264.434,1559.33L264.716,1559.3L264.998,1559.28L265.28,1559.26L265.563,1559.24L265.847,1559.22L266.13,1559.21L266.415,1559.19L266.7,1559.18L266.985,1559.17L267.27,1559.17L267.557,1559.16L267.843,1559.15L268.13,1559.15L268.418,1559.15L268.705,1559.15ZM268.144,1561.38L267.871,1561.38L267.599,1561.38L267.327,1561.39L267.055,1561.4L266.784,1561.41L266.513,1561.42L266.243,1561.43L265.973,1561.44L265.704,1561.46L265.435,1561.48L265.167,1561.5L264.899,1561.52L264.631,1561.54L264.364,1561.57L264.098,1561.59L263.832,1561.62L263.566,1561.65L263.302,1561.68L263.037,1561.72L262.773,1561.75L262.51,1561.79L262.247,1561.82L261.984,1561.86L261.723,1561.9L261.461,1561.95L261.201,1561.99L260.94,1562.04L260.681,1562.08L260.422,1562.13L260.163,1562.18L259.905,1562.23L259.648,1562.29L259.391,1562.34L259.135,1562.4L258.879,1562.46L258.624,1562.52L258.37,1562.58L258.116,1562.64L257.862,1562.71L257.61,1562.77L257.358,1562.84L257.106,1562.91L256.856,1562.98L256.605,1563.05L256.356,1563.12L256.107,1563.2L255.859,1563.28L255.611,1563.35L255.364,1563.43L255.118,1563.51L254.873,1563.6L254.628,1563.68L254.383,1563.77L254.14,1563.85L253.897,1563.94L253.655,1564.03L253.413,1564.12L253.172,1564.21L252.932,1564.31L252.693,1564.4L252.454,1564.5L252.216,1564.6L251.979,1564.7L251.743,1564.8L251.507,1564.9L251.272,1565L251.038,1565.11L250.804,1565.22L250.571,1565.32L250.339,1565.43L250.108,1565.54L249.878,1565.65L249.648,1565.77L249.419,1565.88L249.191,1566L248.964,1566.12L248.737,1566.24L248.512,1566.36L248.287,1566.48L248.063,1566.6L247.839,1566.72L247.617,1566.85L247.395,1566.98L247.175,1567.1L246.955,1567.23L246.736,1567.36L246.517,1567.49L246.3,1567.63L246.084,1567.76L245.868,1567.9L245.653,1568.03L245.439,1568.17L245.226,1568.31L245.014,1568.45L244.803,1568.59L244.593,1568.74L244.383,1568.88L244.175,1569.03L243.967,1569.17L243.76,1569.32L243.555,1569.47L243.35,1569.62L243.146,1569.77L242.943,1569.92L242.741,1570.08L242.54,1570.23L242.34,1570.39L242.141,1570.55L241.942,1570.71L241.745,1570.87L241.549,1571.03L241.354,1571.19L241.16,1571.35L240.966,1571.52L240.774,1571.68L240.583,1571.85L240.392,1572.02L240.203,1572.19L240.015,1572.36L239.828,1572.53L239.642,1572.7L239.457,1572.87L239.273,1573.05L239.089,1573.22L238.908,1573.4L238.727,1573.58L238.547,1573.76L238.368,1573.94L238.19,1574.12L238.014,1574.3L237.838,1574.48L237.664,1574.67L237.49,1574.85L237.318,1575.04L237.147,1575.23L236.977,1575.41L236.808,1575.6L236.64,1575.79L236.473,1575.98L236.308,1576.18L236.143,1576.37L235.98,1576.56L235.818,1576.76L235.657,1576.95L235.497,1577.15L235.338,1577.35L235.181,1577.55L235.025,1577.75L234.869,1577.95L234.715,1578.15L234.563,1578.36L234.411,1578.56L234.261,1578.76L234.112,1578.97L233.964,1579.18L233.817,1579.38L233.671,1579.59L233.527,1579.8L233.384,1580.01L233.242,1580.22L233.102,1580.44L232.962,1580.65L232.824,1580.86L232.687,1581.08L232.552,1581.29L232.417,1581.51L232.284,1581.73L232.153,1581.95L232.022,1582.16L231.893,1582.38L231.765,1582.61L231.638,1582.83L231.513,1583.05L231.389,1583.27L231.266,1583.5L231.145,1583.72L231.025,1583.95L230.906,1584.17L230.789,1584.4L230.673,1584.63L230.558,1584.86L230.445,1585.09L230.333,1585.32L230.222,1585.55L230.113,1585.78L230.005,1586.01L229.899,1586.25L229.794,1586.48L229.69,1586.72L229.588,1586.95L229.487,1587.19L229.387,1587.43L229.289,1587.66L229.192,1587.9L229.097,1588.14L229.003,1588.38L228.911,1588.62L228.82,1588.87L228.73,1589.11L228.642,1589.35L228.555,1589.59L228.47,1589.84L228.386,1590.08L228.304,1590.33L228.223,1590.57L228.143,1590.82L228.066,1591.07L227.989,1591.32L227.914,1591.57L227.841,1591.82L227.769,1592.07L227.698,1592.32L227.629,1592.57L227.562,1592.82L227.496,1593.07L227.432,1593.33L227.369,1593.58L227.307,1593.83L227.248,1594.09L227.189,1594.35L227.133,1594.6L227.078,1594.86L227.024,1595.12L226.972,1595.37L226.922,1595.63L226.873,1595.89L226.826,1596.15L226.78,1596.41L226.736,1596.67L226.693,1596.93L226.652,1597.19L226.613,1597.46L226.575,1597.72L226.539,1597.98L226.505,1598.25L226.472,1598.51L226.441,1598.78L226.411,1599.04L226.383,1599.31L226.357,1599.57L226.333,1599.84L226.31,1600.11L226.288,1600.38L226.269,1600.64L226.251,1600.91L226.235,1601.18L226.22,1601.45L226.207,1601.72L226.196,1601.99L226.187,1602.27L226.179,1602.54L226.173,1602.81L226.169,1603.08L226.166,1603.35L226.165,1603.63L226.166,1603.9L226.169,1604.17L226.173,1604.45L226.179,1604.72L226.187,1604.99L226.196,1605.26L226.207,1605.53L226.22,1605.8L226.235,1606.07L226.251,1606.34L226.269,1606.61L226.288,1606.88L226.31,1607.15L226.333,1607.41L226.357,1607.68L226.383,1607.95L226.411,1608.21L226.441,1608.48L226.472,1608.74L226.505,1609.01L226.539,1609.27L226.575,1609.54L226.613,1609.8L226.652,1610.06L226.693,1610.32L226.736,1610.58L226.78,1610.85L226.826,1611.11L226.873,1611.36L226.922,1611.62L226.972,1611.88L227.024,1612.14L227.078,1612.4L227.133,1612.65L227.189,1612.91L227.248,1613.17L227.307,1613.42L227.369,1613.68L227.432,1613.93L227.496,1614.18L227.562,1614.43L227.629,1614.69L227.698,1614.94L227.769,1615.19L227.841,1615.44L227.914,1615.69L227.989,1615.94L228.066,1616.19L228.143,1616.43L228.223,1616.68L228.304,1616.93L228.386,1617.17L228.47,1617.42L228.555,1617.66L228.642,1617.9L228.73,1618.15L228.82,1618.39L228.911,1618.63L229.003,1618.87L229.097,1619.11L229.192,1619.35L229.289,1619.59L229.387,1619.83L229.487,1620.07L229.588,1620.3L229.69,1620.54L229.794,1620.77L229.899,1621.01L230.005,1621.24L230.113,1621.47L230.222,1621.71L230.333,1621.94L230.445,1622.17L230.558,1622.4L230.673,1622.63L230.789,1622.85L230.906,1623.08L231.025,1623.31L231.145,1623.53L231.266,1623.76L231.389,1623.98L231.513,1624.21L231.638,1624.43L231.765,1624.65L231.893,1624.87L232.022,1625.09L232.153,1625.31L232.284,1625.53L232.417,1625.75L232.552,1625.96L232.687,1626.18L232.824,1626.39L232.962,1626.61L233.102,1626.82L233.242,1627.03L233.384,1627.24L233.527,1627.45L233.671,1627.66L233.817,1627.87L233.964,1628.08L234.112,1628.29L234.261,1628.49L234.411,1628.69L234.563,1628.9L234.715,1629.1L234.869,1629.3L235.025,1629.51L235.181,1629.7L235.338,1629.9L235.497,1630.1L235.657,1630.3L235.818,1630.5L235.98,1630.69L236.143,1630.89L236.308,1631.08L236.473,1631.27L236.64,1631.46L236.808,1631.65L236.977,1631.84L237.147,1632.03L237.318,1632.22L237.49,1632.4L237.664,1632.59L237.838,1632.77L238.014,1632.96L238.19,1633.14L238.368,1633.32L238.547,1633.5L238.727,1633.68L238.908,1633.86L239.089,1634.03L239.273,1634.21L239.457,1634.38L239.642,1634.56L239.828,1634.73L240.015,1634.9L240.203,1635.07L240.392,1635.24L240.583,1635.4L240.774,1635.57L240.966,1635.74L241.16,1635.9L241.354,1636.07L241.549,1636.23L241.745,1636.39L241.942,1636.55L242.141,1636.71L242.34,1636.86L242.54,1637.02L242.741,1637.18L242.943,1637.33L243.146,1637.48L243.35,1637.63L243.555,1637.78L243.76,1637.93L243.967,1638.08L244.175,1638.23L244.383,1638.37L244.593,1638.52L244.803,1638.66L245.014,1638.8L245.226,1638.94L245.439,1639.08L245.653,1639.22L245.868,1639.36L246.084,1639.49L246.3,1639.63L246.517,1639.76L246.736,1639.89L246.955,1640.02L247.175,1640.15L247.395,1640.28L247.617,1640.41L247.84,1640.53L248.063,1640.66L248.287,1640.78L248.512,1640.9L248.737,1641.02L248.964,1641.14L249.191,1641.26L249.419,1641.37L249.648,1641.49L249.878,1641.6L250.108,1641.71L250.339,1641.82L250.571,1641.93L250.804,1642.04L251.038,1642.15L251.272,1642.25L251.507,1642.36L251.743,1642.46L251.979,1642.56L252.216,1642.66L252.454,1642.76L252.693,1642.85L252.932,1642.95L253.172,1643.04L253.413,1643.13L253.655,1643.23L253.897,1643.32L254.14,1643.4L254.383,1643.49L254.628,1643.58L254.873,1643.66L255.118,1643.74L255.364,1643.82L255.611,1643.9L255.859,1643.98L256.107,1644.06L256.356,1644.13L256.605,1644.2L256.856,1644.28L257.106,1644.35L257.358,1644.42L257.61,1644.48L257.862,1644.55L258.116,1644.61L258.37,1644.68L258.624,1644.74L258.879,1644.8L259.135,1644.86L259.391,1644.91L259.648,1644.97L259.905,1645.02L260.163,1645.07L260.422,1645.12L260.681,1645.17L260.94,1645.22L261.201,1645.27L261.461,1645.31L261.723,1645.35L261.984,1645.39L262.247,1645.43L262.51,1645.47L262.773,1645.51L263.037,1645.54L263.302,1645.57L263.566,1645.6L263.832,1645.63L264.098,1645.66L264.364,1645.69L264.631,1645.71L264.899,1645.74L265.167,1645.76L265.435,1645.78L265.704,1645.79L265.973,1645.81L266.243,1645.83L266.513,1645.84L266.784,1645.85L267.055,1645.86L267.327,1645.87L267.599,1645.87L267.871,1645.88L268.144,1645.88L268.418,1645.88L268.691,1645.88L268.964,1645.88L269.236,1645.87L269.508,1645.87L269.78,1645.86L270.051,1645.85L270.322,1645.84L270.592,1645.83L270.862,1645.81L271.131,1645.79L271.4,1645.78L271.669,1645.76L271.937,1645.74L272.204,1645.71L272.471,1645.69L272.737,1645.66L273.003,1645.63L273.269,1645.6L273.534,1645.57L273.798,1645.54L274.062,1645.51L274.326,1645.47L274.589,1645.43L274.851,1645.39L275.113,1645.35L275.374,1645.31L275.635,1645.27L275.895,1645.22L276.155,1645.17L276.414,1645.12L276.672,1645.07L276.93,1645.02L277.188,1644.97L277.444,1644.91L277.701,1644.86L277.956,1644.8L278.211,1644.74L278.466,1644.68L278.72,1644.61L278.973,1644.55L279.226,1644.48L279.478,1644.42L279.729,1644.35L279.98,1644.28L280.23,1644.2L280.479,1644.13L280.728,1644.06L280.976,1643.98L281.224,1643.9L281.471,1643.82L281.717,1643.74L281.963,1643.66L282.208,1643.58L282.452,1643.49L282.696,1643.4L282.938,1643.32L283.181,1643.23L283.422,1643.13L283.663,1643.04L283.903,1642.95L284.142,1642.85L284.381,1642.76L284.619,1642.66L284.856,1642.56L285.093,1642.46L285.328,1642.36L285.563,1642.25L285.798,1642.15L286.031,1642.04L286.264,1641.93L286.496,1641.82L286.727,1641.71L286.957,1641.6L287.187,1641.49L287.416,1641.37L287.644,1641.26L287.871,1641.14L288.098,1641.02L288.324,1640.9L288.549,1640.78L288.773,1640.66L288.996,1640.53L289.218,1640.41L289.44,1640.28L289.661,1640.15L289.881,1640.02L290.1,1639.89L290.318,1639.76L290.535,1639.63L290.752,1639.49L290.967,1639.36L291.182,1639.22L291.396,1639.08L291.609,1638.94L291.821,1638.8L292.032,1638.66L292.243,1638.52L292.452,1638.37L292.661,1638.23L292.868,1638.08L293.075,1637.93L293.281,1637.78L293.486,1637.63L293.689,1637.48L293.892,1637.33L294.094,1637.18L294.296,1637.02L294.496,1636.86L294.695,1636.71L294.893,1636.55L295.09,1636.39L295.286,1636.23L295.482,1636.07L295.676,1635.9L295.869,1635.74L296.061,1635.57L296.253,1635.4L296.443,1635.24L296.632,1635.07L296.82,1634.9L297.007,1634.73L297.194,1634.56L297.379,1634.38L297.563,1634.21L297.746,1634.03L297.928,1633.86L298.109,1633.68L298.289,1633.5L298.467,1633.32L298.645,1633.14L298.822,1632.96L298.997,1632.77L299.172,1632.59L299.345,1632.4L299.517,1632.22L299.689,1632.03L299.859,1631.84L300.028,1631.65L300.195,1631.46L300.362,1631.27L300.528,1631.08L300.692,1630.89L300.855,1630.69L301.018,1630.5L301.179,1630.3L301.338,1630.1L301.497,1629.9L301.654,1629.7L301.811,1629.51L301.966,1629.3L302.12,1629.1L302.273,1628.9L302.424,1628.69L302.575,1628.49L302.724,1628.29L302.872,1628.08L303.019,1627.87L303.164,1627.66L303.308,1627.45L303.451,1627.24L303.593,1627.03L303.734,1626.82L303.873,1626.61L304.011,1626.39L304.148,1626.18L304.284,1625.96L304.418,1625.75L304.551,1625.53L304.683,1625.31L304.813,1625.09L304.942,1624.87L305.07,1624.65L305.197,1624.43L305.322,1624.21L305.446,1623.98L305.569,1623.76L305.69,1623.53L305.81,1623.31L305.929,1623.08L306.046,1622.85L306.162,1622.63L306.277,1622.4L306.39,1622.17L306.502,1621.94L306.613,1621.71L306.722,1621.47L306.83,1621.24L306.937,1621.01L307.042,1620.77L307.145,1620.54L307.248,1620.3L307.349,1620.07L307.448,1619.83L307.546,1619.59L307.643,1619.35L307.738,1619.11L307.832,1618.87L307.925,1618.63L308.016,1618.39L308.105,1618.15L308.194,1617.9L308.28,1617.66L308.366,1617.42L308.449,1617.17L308.532,1616.93L308.613,1616.68L308.692,1616.43L308.77,1616.19L308.846,1615.94L308.921,1615.69L308.995,1615.44L309.067,1615.19L309.137,1614.94L309.206,1614.69L309.273,1614.43L309.339,1614.18L309.404,1613.93L309.467,1613.68L309.528,1613.42L309.588,1613.17L309.646,1612.91L309.703,1612.65L309.758,1612.4L309.811,1612.14L309.863,1611.88L309.914,1611.62L309.963,1611.36L310.01,1611.11L310.055,1610.85L310.1,1610.58L310.142,1610.32L310.183,1610.06L310.222,1609.8L310.26,1609.54L310.296,1609.27L310.33,1609.01L310.363,1608.74L310.394,1608.48L310.424,1608.21L310.452,1607.95L310.478,1607.68L310.503,1607.41L310.526,1607.15L310.547,1606.88L310.567,1606.61L310.584,1606.34L310.601,1606.07L310.615,1605.8L310.628,1605.53L310.639,1605.26L310.649,1604.99L310.656,1604.72L310.663,1604.45L310.667,1604.17L310.669,1603.9L310.67,1603.63L310.669,1603.35L310.667,1603.08L310.663,1602.81L310.656,1602.54L310.649,1602.27L310.639,1601.99L310.628,1601.72L310.615,1601.45L310.601,1601.18L310.584,1600.91L310.567,1600.64L310.547,1600.38L310.526,1600.11L310.503,1599.84L310.478,1599.57L310.452,1599.31L310.424,1599.04L310.394,1598.78L310.363,1598.51L310.33,1598.25L310.296,1597.98L310.26,1597.72L310.222,1597.46L310.183,1597.19L310.142,1596.93L310.1,1596.67L310.055,1596.41L310.01,1596.15L309.963,1595.89L309.914,1595.63L309.863,1595.37L309.811,1595.12L309.758,1594.86L309.703,1594.6L309.646,1594.35L309.588,1594.09L309.528,1593.83L309.467,1593.58L309.404,1593.33L309.339,1593.07L309.273,1592.82L309.206,1592.57L309.137,1592.32L309.067,1592.07L308.995,1591.82L308.921,1591.57L308.846,1591.32L308.77,1591.07L308.692,1590.82L308.613,1590.57L308.532,1590.33L308.449,1590.08L308.366,1589.84L308.28,1589.59L308.194,1589.35L308.105,1589.11L308.016,1588.87L307.925,1588.62L307.832,1588.38L307.738,1588.14L307.643,1587.9L307.546,1587.66L307.448,1587.43L307.349,1587.19L307.248,1586.95L307.145,1586.72L307.042,1586.48L306.937,1586.25L306.83,1586.01L306.722,1585.78L306.613,1585.55L306.502,1585.32L306.39,1585.09L306.277,1584.86L306.162,1584.63L306.046,1584.4L305.929,1584.17L305.81,1583.95L305.69,1583.72L305.569,1583.5L305.446,1583.27L305.322,1583.05L305.197,1582.83L305.07,1582.61L304.942,1582.38L304.813,1582.16L304.683,1581.95L304.551,1581.73L304.418,1581.51L304.284,1581.29L304.148,1581.08L304.011,1580.86L303.873,1580.65L303.734,1580.44L303.593,1580.22L303.451,1580.01L303.308,1579.8L303.164,1579.59L303.019,1579.38L302.872,1579.18L302.724,1578.97L302.575,1578.76L302.424,1578.56L302.273,1578.36L302.12,1578.15L301.966,1577.95L301.811,1577.75L301.654,1577.55L301.497,1577.35L301.338,1577.15L301.179,1576.95L301.018,1576.76L300.855,1576.56L300.692,1576.37L300.528,1576.18L300.362,1575.98L300.195,1575.79L300.028,1575.6L299.859,1575.41L299.689,1575.23L299.517,1575.04L299.345,1574.85L299.172,1574.67L298.997,1574.48L298.822,1574.3L298.645,1574.12L298.467,1573.94L298.289,1573.76L298.109,1573.58L297.928,1573.4L297.746,1573.22L297.563,1573.05L297.379,1572.87L297.194,1572.7L297.008,1572.53L296.82,1572.36L296.632,1572.19L296.443,1572.02L296.253,1571.85L296.061,1571.68L295.869,1571.52L295.676,1571.35L295.482,1571.19L295.286,1571.03L295.09,1570.87L294.893,1570.71L294.695,1570.55L294.496,1570.39L294.296,1570.23L294.094,1570.08L293.892,1569.92L293.69,1569.77L293.486,1569.62L293.281,1569.47L293.075,1569.32L292.868,1569.17L292.661,1569.03L292.452,1568.88L292.243,1568.74L292.032,1568.59L291.821,1568.45L291.609,1568.31L291.396,1568.17L291.182,1568.03L290.967,1567.9L290.752,1567.76L290.535,1567.63L290.318,1567.49L290.1,1567.36L289.881,1567.23L289.661,1567.1L289.44,1566.98L289.218,1566.85L288.996,1566.72L288.773,1566.6L288.549,1566.48L288.324,1566.36L288.098,1566.24L287.871,1566.12L287.644,1566L287.416,1565.88L287.187,1565.77L286.958,1565.65L286.727,1565.54L286.496,1565.43L286.264,1565.32L286.031,1565.22L285.798,1565.11L285.563,1565L285.328,1564.9L285.093,1564.8L284.856,1564.7L284.619,1564.6L284.381,1564.5L284.142,1564.4L283.903,1564.31L283.663,1564.21L283.422,1564.12L283.181,1564.03L282.938,1563.94L282.696,1563.85L282.452,1563.77L282.208,1563.68L281.963,1563.6L281.717,1563.51L281.471,1563.43L281.224,1563.35L280.976,1563.28L280.728,1563.2L280.479,1563.12L280.23,1563.05L279.98,1562.98L279.729,1562.91L279.478,1562.84L279.226,1562.77L278.973,1562.71L278.72,1562.64L278.466,1562.58L278.211,1562.52L277.956,1562.46L277.701,1562.4L277.444,1562.34L277.188,1562.29L276.93,1562.23L276.672,1562.18L276.414,1562.13L276.155,1562.08L275.895,1562.04L275.635,1561.99L275.374,1561.95L275.113,1561.9L274.851,1561.86L274.589,1561.82L274.326,1561.79L274.062,1561.75L273.798,1561.72L273.534,1561.68L273.269,1561.65L273.003,1561.62L272.737,1561.59L272.471,1561.57L272.204,1561.54L271.937,1561.52L271.669,1561.5L271.4,1561.48L271.131,1561.46L270.862,1561.44L270.592,1561.43L270.322,1561.42L270.051,1561.41L269.78,1561.4L269.508,1561.39L269.236,1561.38L268.964,1561.38L268.691,1561.38L268.418,1561.38L268.144,1561.38Z" style="fill:rgb(221,168,47);"/>
            </g>
            <g transform="matrix(0.0585938,0,0,0.0722226,274.449,2439.13)">
                <path d="M256,0C206.371,0 166,41.371 166,91C166,140.629 206.371,181 256,181C305.629,181 346,140.629 346,91C346,41.371 305.629,0 256,0Z" style="fill:white;fill-rule:nonzero;"/>
                <path d="M286,181L256,181L226,181C204.842,181 184.397,186.469 165.81,195.773C197.379,204.291 227.103,216.559 256,233.145C284.898,216.559 314.621,204.291 346.19,195.773C327.603,186.469 307.158,181 286,181Z" style="fill:white;fill-rule:nonzero;"/>
                <path d="M482,271C465.431,271 452,284.431 452,301L452,361C452,377.567 465.431,391 482,391C498.569,391 512,377.567 512,361L512,301C512,284.431 498.569,271 482,271Z" style="fill:white;fill-rule:nonzero;"/>
                <path d="M30,271C13.431,271 0,284.431 0,301L0,361C0,377.567 13.431,391 30,391C46.569,391 60,377.567 60,361L60,301C60,284.431 46.569,271 30,271Z" style="fill:white;fill-rule:nonzero;"/>
                <path d="M45,211C36.709,211 30,217.709 30,226L30,241C63.091,241 90,267.909 90,301L90,361C90,394.091 63.091,421 30,421L30,436C30,444.291 36.709,451 45,451C121.901,451 183.39,475.286 241,512L241,259.594C183.13,226.414 120.903,211 45,211Z" style="fill:white;fill-rule:nonzero;"/>
                <path d="M482,241L482,226C482,217.709 475.291,211 467,211C391.097,211 328.87,226.414 271,259.594L271,512C328.61,475.286 390.099,451 467,451C475.291,451 482,444.291 482,436L482,421C448.909,421 422,394.091 422,361L422,301C422,267.909 448.909,241 482,241Z" style="fill:white;fill-rule:nonzero;"/>
            </g>
        </g>
    </g>
</svg>
