<?xml version="1.0" encoding="UTF-8" standalone="no"?>
<!DOCTYPE svg PUBLIC "-//W3C//DTD SVG 1.1//EN" "http://www.w3.org/Graphics/SVG/1.1/DTD/svg11.dtd">
<svg width="100%" height="100%" viewBox="0 0 13 13" version="1.1" xmlns="http://www.w3.org/2000/svg" xmlns:xlink="http://www.w3.org/1999/xlink" xml:space="preserve" xmlns:serif="http://www.serif.com/" style="fill-rule:evenodd;clip-rule:evenodd;stroke-linejoin:round;stroke-miterlimit:1.41421;">
    <g transform="matrix(0.75,0,0,0.75,0,0)">
        <g transform="matrix(1,0,0,0.811293,-109.431,-154.587)">
            <g transform="matrix(0.0332031,0,0,0.0409262,109.32,190.544)">
                <path d="M283.257,322.715C340.963,322.715 387.891,275.787 387.891,218.081C387.891,160.376 340.962,113.447 283.257,113.447C225.552,113.447 178.623,160.375 178.623,218.081C178.623,275.787 225.552,322.715 283.257,322.715Z" style="fill:white;fill-rule:nonzero;"/>
            </g>
            <g transform="matrix(0.0332031,0,0,0.0409262,109.32,190.544)">
                <path d="M194.285,343.485C153.981,343.485 121.31,376.155 121.31,416.46L121.31,497.966C121.31,505.714 127.598,512 135.344,512L431.171,512C438.918,512 445.205,505.714 445.205,497.966L445.205,418.48C446.44,416.347 447.562,414.046 448.461,411.632L505.717,260.07C507.626,255.018 508.636,249.629 508.636,244.184L508.636,74.097C508.636,49.286 488.54,29.19 463.729,29.19C438.918,29.19 418.822,49.286 418.822,74.097L418.822,235.988L378.237,343.485L194.285,343.485Z" style="fill:white;fill-rule:nonzero;"/>
            </g>
            <g transform="matrix(0.0332031,0,0,0.0409262,109.32,190.544)">
                <path d="M17.294,99.975L50.413,99.975C57.374,99.975 63.268,94.923 64.278,88.075C66.187,75.613 70.06,66.407 75.786,60.849C81.118,55.685 88.472,53.159 98.352,53.159C108.568,53.159 116.371,55.966 122.321,61.804C128.271,67.642 131.022,74.658 131.022,83.977C131.022,88.355 130.011,92.397 127.934,96.326C126.868,98.291 122.714,104.353 106.884,117.77C92.177,130.231 82.241,141.963 76.459,153.583C70.565,165.427 67.702,182.661 67.702,206.125C67.702,213.871 73.989,220.158 81.736,220.158L111.655,220.158C119.402,220.158 125.689,213.871 125.689,206.125C125.689,187.993 127.878,180.584 129.169,177.777C130.18,175.532 134.39,168.908 151.062,155.099C166.555,142.244 176.996,130.512 182.946,119.285C189.064,107.778 192.152,95.147 192.152,81.788C192.152,57.93 183.114,38.003 165.207,22.51C147.918,7.578 125.352,0 98.127,0C72.193,0 50.245,7.747 33.011,22.959C15.61,38.34 5.674,59.165 3.429,84.819C2.643,92.902 9.098,99.975 17.294,99.975Z" style="fill:white;fill-rule:nonzero;"/>
            </g>
        </g>
    </g>
</svg>
