<?xml version="1.0" encoding="UTF-8" standalone="no"?>
<!DOCTYPE svg PUBLIC "-//W3C//DTD SVG 1.1//EN" "http://www.w3.org/Graphics/SVG/1.1/DTD/svg11.dtd">
<svg width="100%" height="100%" viewBox="0 0 14 13" version="1.1" xmlns="http://www.w3.org/2000/svg" xmlns:xlink="http://www.w3.org/1999/xlink" xml:space="preserve" xmlns:serif="http://www.serif.com/" style="fill-rule:evenodd;clip-rule:evenodd;stroke-linejoin:round;stroke-miterlimit:1.41421;">
    <g transform="matrix(0.75,0,0,0.75,0,0)">
        <g transform="matrix(1,0,0,0.811293,-108.714,-213.418)">
            <g transform="matrix(0.035569,0,0,0.0438423,108.714,262.312)">
                <circle cx="412.886" cy="56.354" r="39.327" style="fill:white;"/>
            </g>
            <g transform="matrix(0.035569,0,0,0.0438423,108.714,262.312)">
                <path d="M362.165,339.365L362.165,472.092C362.165,484.668 372.36,494.864 384.938,494.864C397.515,494.864 407.71,484.669 407.71,472.092L407.71,339.365L362.165,339.365Z" style="fill:white;fill-rule:nonzero;"/>
            </g>
            <g transform="matrix(0.035569,0,0,0.0438423,108.714,262.312)">
                <path d="M451.139,479.911L451.139,339.365L417.543,339.365L417.543,472.092C417.543,484.668 427.738,494.864 440.315,494.864C445.216,494.864 449.743,493.301 453.457,490.668C451.972,487.383 451.139,483.744 451.139,479.911Z" style="fill:white;fill-rule:nonzero;"/>
            </g>
            <g transform="matrix(0.035569,0,0,0.0438423,108.714,262.312)">
                <circle cx="138.692" cy="150.166" r="40.197" style="fill:white;"/>
            </g>
            <g transform="matrix(0.035569,0,0,0.0438423,108.714,262.312)">
                <path d="M245.396,255.654L176.075,247.251L131.396,217.555L158.077,226.315C154.308,213.325 142.456,204.411 129.005,204.315L100.949,204.114C83.989,203.992 70.185,217.746 70.232,234.696L70.515,338.138C70.537,346.252 73.792,354.021 79.558,359.73C83.626,363.756 88.709,366.516 94.198,367.775L55.863,367.775L29.871,235.548C28.266,227.377 20.342,222.06 12.171,223.663C4.002,225.269 -1.32,233.194 0.286,241.363L28.669,385.76C30.059,392.83 36.258,397.928 43.463,397.928L84.53,397.928L84.53,450.149L38.286,475.473C33.59,478.045 31.429,483.834 33.691,488.686C36.169,494.003 42.575,496.043 47.635,493.271L94.582,467.563L141.531,493.271C146.606,496.05 153.014,493.99 155.484,488.669C157.735,483.82 155.573,478.043 150.884,475.475L104.634,450.148L104.634,397.927L148.549,397.927C157.019,397.927 164.248,390.995 164.07,382.527C163.966,377.617 161.507,373.295 157.785,370.618L171.81,373.888L171.81,472.468C171.81,484.318 181.025,494.412 192.869,494.834C205.303,495.276 215.523,485.328 215.523,472.992L215.523,356.542C215.522,346.382 208.522,337.563 198.628,335.257L157.859,325.753L158.371,293.251L116.649,251.492L159.513,279.98C161.88,281.553 164.582,282.551 167.403,282.892C173.796,283.667 234.484,291.023 241.015,291.815C250.934,293.013 260.074,285.93 261.287,275.926C262.495,265.94 255.381,256.865 245.396,255.654Z" style="fill:white;fill-rule:nonzero;"/>
            </g>
            <g transform="matrix(0.035569,0,0,0.0438423,108.714,262.312)">
                <path d="M498.265,300.74L229.057,300.74C221.471,300.74 215.321,306.89 215.321,314.476C215.321,322.062 221.471,328.212 229.057,328.212L235.737,328.212C235.737,333.652 235.737,474.316 235.737,479.912C235.737,488.23 242.479,494.972 250.797,494.972L250.857,494.972C259.174,494.972 265.917,488.23 265.917,479.912C265.917,474.314 265.917,333.647 265.917,328.212L462.476,328.212L462.29,479.912C462.29,488.229 469.032,494.971 477.35,494.971L477.41,494.971C485.727,494.971 492.469,488.229 492.469,479.912C492.469,464.529 492.469,347.273 492.469,328.212L498.262,328.212C505.849,328.212 511.998,322.062 511.998,314.476C511.998,306.89 505.851,300.74 498.265,300.74Z" style="fill:white;fill-rule:nonzero;"/>
            </g>
            <g transform="matrix(0.035569,0,0,0.0438423,108.714,262.312)">
                <path d="M324.996,268.555L286.331,268.555C280.78,268.555 276.28,273.054 276.28,278.605C276.28,284.156 280.78,288.655 286.331,288.655L324.996,288.655C330.547,288.655 335.047,284.156 335.047,278.605C335.047,273.054 330.547,268.555 324.996,268.555Z" style="fill:white;fill-rule:nonzero;"/>
            </g>
            <g transform="matrix(0.035569,0,0,0.0438423,108.714,262.312)">
                <path d="M508.567,152.899C508.443,128.261 488.298,108.216 463.66,108.216L444.21,108.216C441.724,114.711 423.352,162.708 420.687,169.674L426.234,143.547C426.623,141.712 426.34,139.798 425.437,138.156L417.82,124.303L424.591,111.987C425.599,110.152 424.27,107.902 422.175,107.902L403.59,107.902C401.498,107.902 400.165,110.151 401.174,111.987L407.945,124.303L400.3,138.208C398.515,141.455 399.037,143.011 404.332,169.675C399.634,157.626 386.161,121.321 381.051,108.217L361.784,108.217C337.715,108.217 317.934,127.345 316.918,151.201L307.802,206.728C306.584,214.144 309.859,221.58 316.149,225.69L362.157,255.74L362.157,289.588C374.441,289.588 451.015,289.588 463.061,289.588C463.061,289.588 462.693,266.911 462.673,153.194C462.673,151.02 464.42,149.25 466.592,149.222C468.764,149.194 470.559,150.917 470.615,153.091L471.301,289.588L509.255,289.673L508.567,152.899ZM362.156,210.407L347.255,200.675C352.698,167.044 354.422,155.168 354.828,153.09C355.194,151.22 356.92,149.934 358.816,150.119C360.712,150.304 362.155,151.899 362.155,153.804L362.155,210.407L362.156,210.407Z" style="fill:white;fill-rule:nonzero;"/>
            </g>
        </g>
    </g>
</svg>
