<?xml version="1.0" encoding="UTF-8" standalone="no"?>
<!DOCTYPE svg PUBLIC "-//W3C//DTD SVG 1.1//EN" "http://www.w3.org/Graphics/SVG/1.1/DTD/svg11.dtd">
<svg width="100%" height="100%" viewBox="0 0 15 13" version="1.1" xmlns="http://www.w3.org/2000/svg" xmlns:xlink="http://www.w3.org/1999/xlink" xml:space="preserve" xmlns:serif="http://www.serif.com/" style="fill-rule:evenodd;clip-rule:evenodd;stroke-linejoin:round;stroke-miterlimit:1.41421;">
    <g transform="matrix(0.75,0,0,0.75,0,0)">
        <g transform="matrix(0.0389455,0,0,0.0389455,0,-1.47005)">
            <g>
                <path d="M0,39.812L92,39.812L92,85.813L0,85.813L0,39.812ZM0,104.213L92,104.213L92,417.019L0,417.019L0,104.213ZM16.865,359.127C16.865,375.009 29.729,387.884 45.616,387.884C61.498,387.884 74.368,375.019 74.368,359.127C74.368,343.235 61.498,330.37 45.616,330.37C29.729,330.376 16.865,343.256 16.865,359.127ZM0,472.219L92,472.219L92,435.419L0,435.419L0,472.219ZM110.4,428.984L110.4,472.224L230.001,472.224L230.001,428.758C225.117,425.267 209.945,417.024 174.801,417.024C141.486,417.019 120.21,424.484 110.4,428.984ZM110.4,164.323C120.21,168.813 141.486,176.288 174.801,176.288C209.724,176.283 224.933,168.14 230.001,164.486L230.001,131.813L110.4,131.813L110.4,164.323ZM110.4,184.242L110.4,409.06C123.722,404.076 145.056,398.624 174.801,398.624C201.638,398.624 219.05,403.114 230.001,407.914L230.001,185.409C219.05,190.194 201.638,194.688 174.801,194.688C145.056,194.678 123.722,189.226 110.4,184.242ZM425.089,37.746L362.003,50.69L371.255,95.749L434.341,82.806L425.089,37.746ZM500.897,407.267L437.821,420.215L374.941,113.781L438.027,100.838L500.897,407.267ZM479.011,352.65C475.82,337.105 463.387,326.517 451.28,329.004C439.152,331.501 431.891,346.131 435.104,361.677C438.289,377.222 450.712,387.821 462.83,385.323C474.963,382.837 482.213,368.217 479.011,352.65ZM504.603,425.267L441.507,438.221L448.909,474.254L511.995,461.305L504.603,425.267ZM257.601,85.813L349.601,85.813L349.601,39.812L257.601,39.812L257.601,85.813ZM257.601,472.219L349.601,472.219L349.601,435.419L257.601,435.419L257.601,472.219ZM257.601,371.019L349.601,371.019L349.601,150.213L257.601,150.213L257.601,371.019ZM257.601,417.019L349.601,417.019L349.601,389.419L257.601,389.419L257.601,417.019ZM257.601,131.813L349.601,131.813L349.601,104.213L257.601,104.213L257.601,131.813Z" style="fill:white;fill-rule:nonzero;"/>
            </g>
        </g>
    </g>
</svg>
